<svg xmlns="http://www.w3.org/2000/svg" width="22" height="21" viewBox="0 0 22 21"><g transform="translate(-1212 -28)"><path d="M1226.736,46.347A2.62,2.62,0,1,1,1229.357,49,2.637,2.637,0,0,1,1226.736,46.347Zm.964,0a1.657,1.657,0,1,0,1.657-1.677A1.667,1.667,0,0,0,1227.7,46.347Zm-11.078,0a2.62,2.62,0,1,1,2.62,2.652A2.636,2.636,0,0,1,1216.622,46.347Zm.963,0a1.657,1.657,0,1,0,1.657-1.677A1.667,1.667,0,0,0,1217.585,46.347Zm11.825-3.827h-10.115a2.412,2.412,0,0,1-2.37-2.014l-1.706-9.735a1.936,1.936,0,0,0-1.561-1.579l-1.262-.224a.488.488,0,0,1-.39-.566.482.482,0,0,1,.558-.394l1.257.224a2.914,2.914,0,0,1,2.346,2.369l.346,1.965h17.007a.489.489,0,0,1,.385.2.513.513,0,0,1,.073.433l-2.264,7.6a2.407,2.407,0,0,1-2.3,1.731Zm0-.98A1.437,1.437,0,0,0,1230.8,40.5l2.081-6.966h-16.188l1.189,6.8a1.444,1.444,0,0,0,1.421,1.209Z"/><path d="M1226.736,46.347A2.62,2.62,0,1,1,1229.357,49,2.637,2.637,0,0,1,1226.736,46.347Zm.964,0a1.657,1.657,0,1,0,1.657-1.677A1.667,1.667,0,0,0,1227.7,46.347Zm-11.078,0a2.62,2.62,0,1,1,2.62,2.652A2.636,2.636,0,0,1,1216.622,46.347Zm.963,0a1.657,1.657,0,1,0,1.657-1.677A1.667,1.667,0,0,0,1217.585,46.347Zm11.825-3.827h-10.115a2.412,2.412,0,0,1-2.37-2.014l-1.706-9.735a1.936,1.936,0,0,0-1.561-1.579l-1.262-.224a.488.488,0,0,1-.39-.566.482.482,0,0,1,.558-.394l1.257.224a2.914,2.914,0,0,1,2.346,2.369l.346,1.965h17.007a.489.489,0,0,1,.385.2.513.513,0,0,1,.073.433l-2.264,7.6a2.407,2.407,0,0,1-2.3,1.731Zm0-.98A1.437,1.437,0,0,0,1230.8,40.5l2.081-6.966h-16.188l1.189,6.8a1.444,1.444,0,0,0,1.421,1.209Z"/><path d="M1226.736,46.347A2.62,2.62,0,1,1,1229.357,49,2.637,2.637,0,0,1,1226.736,46.347Zm.964,0a1.657,1.657,0,1,0,1.657-1.677A1.667,1.667,0,0,0,1227.7,46.347Zm-11.078,0a2.62,2.62,0,1,1,2.62,2.652A2.636,2.636,0,0,1,1216.622,46.347Zm.963,0a1.657,1.657,0,1,0,1.657-1.677A1.667,1.667,0,0,0,1217.585,46.347Zm11.825-3.827h-10.115a2.412,2.412,0,0,1-2.37-2.014l-1.706-9.735a1.936,1.936,0,0,0-1.561-1.579l-1.262-.224a.488.488,0,0,1-.39-.566.482.482,0,0,1,.558-.394l1.257.224a2.914,2.914,0,0,1,2.346,2.369l.346,1.965h17.007a.489.489,0,0,1,.385.2.513.513,0,0,1,.073.433l-2.264,7.6a2.407,2.407,0,0,1-2.3,1.731Zm0-.98A1.437,1.437,0,0,0,1230.8,40.5l2.081-6.966h-16.188l1.189,6.8a1.444,1.444,0,0,0,1.421,1.209Z"/></g></svg>