<svg xmlns="http://www.w3.org/2000/svg" width="41" height="41" viewBox="0 0 41 41">
    <path id="prefix__noun_Close_322146" d="M32.166 12.665a20.5 20.5 0 1 0 20.5 20.5 20.5 20.5 0 0 0-20.5-20.5zM39.9 40.978a2.1 2.1 0 0 1-2.962 0l-4.665-4.665-4.873 4.878a2.095 2.095 0 1 1-2.962-2.963l4.877-4.877-4.541-4.54a2.095 2.095 0 1 1 2.963-2.963l4.54 4.54L36.6 26.06a2.095 2.095 0 0 1 2.962 2.963l-4.328 4.328 4.666 4.664a2.1 2.1 0 0 1 0 2.963z" transform="translate(-11.667 -12.665)" style="fill:#ffffff"/>
</svg>
