<svg xmlns="http://www.w3.org/2000/svg" id="facebook_2_" width="25.393" height="25.395" data-name="facebook (2)" viewBox="0 0 25.393 25.395">
    <defs>
        <style>
            .cls-1{fill:#4267b2}.cls-2{fill:#fff}
        </style>
    </defs>
    <path id="Path_253" d="M23.993 0H1.4A1.4 1.4 0 0 0 0 1.4V24a1.4 1.4 0 0 0 1.4 1.4h22.593a1.4 1.4 0 0 0 1.4-1.4V1.4a1.4 1.4 0 0 0-1.4-1.4zm0 0" class="cls-1" data-name="Path 253"/>
    <path id="Path_254" d="M214.267 98.884v-9.821h3.311l.5-3.844h-3.807v-2.448c0-1.11.308-1.867 1.9-1.867h2.018v-3.429a27.126 27.126 0 0 0-2.957-.151c-2.926 0-4.929 1.786-4.929 5.066v2.829H207v3.844h3.3v9.821zm0 0" class="cls-2" data-name="Path 254" transform="translate(-196.733 -73.489)"/>
</svg>
