<svg xmlns="http://www.w3.org/2000/svg" xmlns:xlink="http://www.w3.org/1999/xlink" width="1170.684" height="354.463" viewBox="0 0 1170.684 354.463"><defs><radialGradient id="a" cx="0.549" cy="0.34" r="2.162" gradientTransform="translate(1.713) scale(0.37 1)" gradientUnits="objectBoundingBox"><stop offset="0.006" stop-color="#ad1657"/><stop offset="0.994" stop-color="#9b0c4b"/></radialGradient><radialGradient id="b" cx="0.5" cy="0.5" r="1.591" gradientTransform="translate(2.389) scale(0.228 1)" gradientUnits="objectBoundingBox"><stop offset="0.065" stop-color="#36a9e2"/><stop offset="0.341" stop-color="#299ad7"/><stop offset="0.867" stop-color="#0974bc"/><stop offset="1" stop-color="#006ab5"/></radialGradient><radialGradient id="c" cx="0.732" cy="0.914" r="1.953" gradientTransform="translate(3.017) scale(0.333 1)" gradientUnits="objectBoundingBox"><stop offset="0.04" stop-color="#97b33c"/><stop offset="0.264" stop-color="#84ab37"/><stop offset="0.613" stop-color="#6ca232"/><stop offset="0.831" stop-color="#649f31"/></radialGradient><linearGradient id="d" x1="0.411" y1="0.544" x2="0.733" y2="0.996" gradientUnits="objectBoundingBox"><stop offset="0" stop-color="#1a73bb"/><stop offset="0.07" stop-color="#1c77be"/><stop offset="0.676" stop-color="#2e9bd8"/><stop offset="1" stop-color="#36a9e2"/></linearGradient><linearGradient id="e" x1="0.76" y1="0.67" x2="0.234" y2="0.211" gradientUnits="objectBoundingBox"><stop offset="0" stop-color="#60b6e7"/><stop offset="0.173" stop-color="#57afe2"/><stop offset="0.453" stop-color="#3f9cd6"/><stop offset="0.803" stop-color="#187dc1"/><stop offset="1" stop-color="#006ab5"/></linearGradient><linearGradient id="f" y1="0.5" x2="1" y2="0.5" gradientUnits="objectBoundingBox"><stop offset="0" stop-color="#005c9b"/><stop offset="1" stop-color="#005891"/></linearGradient><linearGradient id="g" x1="0.788" y1="0.428" x2="0.207" y2="0.526" gradientUnits="objectBoundingBox"><stop offset="0" stop-color="#36a9e2"/><stop offset="0.236" stop-color="#2ea0db"/><stop offset="0.616" stop-color="#1a88ca"/><stop offset="1" stop-color="#006ab5"/></linearGradient><linearGradient id="h" x1="0.712" y1="0.547" x2="0.884" y2="0.576" gradientUnits="objectBoundingBox"><stop offset="0" stop-color="#36a9e2"/><stop offset="0.196" stop-color="#30a0d9"/><stop offset="0.513" stop-color="#2088c1"/><stop offset="0.909" stop-color="#06619a"/><stop offset="1" stop-color="#005891"/></linearGradient><linearGradient id="i" x1="0.581" y1="0.602" x2="0.41" y2="0.378" gradientUnits="objectBoundingBox"><stop offset="0" stop-color="#2a94c5"/><stop offset="0.257" stop-color="#238bbe"/><stop offset="0.671" stop-color="#1173ac"/><stop offset="1" stop-color="#005c9b"/></linearGradient><linearGradient id="j" x1="0.396" y1="0.441" x2="0.647" y2="0.54" gradientUnits="objectBoundingBox"><stop offset="0" stop-color="#36a9e2"/><stop offset="0.179" stop-color="#30a0d9"/><stop offset="0.467" stop-color="#2289c1"/><stop offset="0.828" stop-color="#0c659a"/><stop offset="1" stop-color="#005186"/></linearGradient><linearGradient id="k" x1="0.959" y1="0.189" x2="0.736" y2="0.368" gradientUnits="objectBoundingBox"><stop offset="0" stop-color="#36a9e2"/><stop offset="0.204" stop-color="#2fa0d9"/><stop offset="0.532" stop-color="#1f88c4"/><stop offset="0.943" stop-color="#0461a0"/><stop offset="1" stop-color="#005c9b"/></linearGradient><linearGradient id="l" x1="0.281" y1="0.32" x2="0.347" y2="0.388" gradientUnits="objectBoundingBox"><stop offset="0" stop-color="#36a9e2"/><stop offset="0.4" stop-color="#1c80b7"/><stop offset="0.791" stop-color="#075d93"/><stop offset="1" stop-color="#005186"/></linearGradient><linearGradient id="m" y1="0.5" x2="1" y2="0.5" gradientUnits="objectBoundingBox"><stop offset="0" stop-color="#9b0c4b"/><stop offset="0.243" stop-color="#a81f58"/><stop offset="0.736" stop-color="#c04370"/><stop offset="1" stop-color="#ca517a"/></linearGradient><linearGradient id="n" y1="0.5" x2="1" y2="0.5" gradientUnits="objectBoundingBox"><stop offset="0" stop-color="#8b0e46"/><stop offset="1" stop-color="#c13f6f"/></linearGradient><linearGradient id="o" x1="0.475" y1="0.44" x2="0.572" y2="0.578" xlink:href="#m"/><linearGradient id="p" x1="0.218" y1="0.346" x2="0.578" y2="0.685" gradientUnits="objectBoundingBox"><stop offset="0" stop-color="#8b0e46"/><stop offset="0.225" stop-color="#9b1f53"/><stop offset="0.729" stop-color="#bd436f"/><stop offset="1" stop-color="#ca517a"/></linearGradient><linearGradient id="q" x1="0.82" y1="0.283" x2="1.006" y2="0.155" gradientUnits="objectBoundingBox"><stop offset="0" stop-color="#ca517a"/><stop offset="0.243" stop-color="#bc3d6c"/><stop offset="0.736" stop-color="#a41954"/><stop offset="1" stop-color="#9b0c4b"/></linearGradient><linearGradient id="r" x1="0.98" y1="0.694" x2="1.13" y2="0.78" xlink:href="#q"/><linearGradient id="s" x1="0.307" y1="0.243" x2="0.171" y2="0.116" gradientUnits="objectBoundingBox"><stop offset="0" stop-color="#8b0e46"/><stop offset="0.362" stop-color="#a53160"/><stop offset="0.777" stop-color="#bf557a"/><stop offset="1" stop-color="#c96385"/></linearGradient><linearGradient id="t" x1="0.276" y1="0.318" x2="0.322" y2="0.351" gradientUnits="objectBoundingBox"><stop offset="0" stop-color="#ca517a"/><stop offset="0.225" stop-color="#b93f6c"/><stop offset="0.729" stop-color="#971b50"/><stop offset="1" stop-color="#8b0e46"/></linearGradient><linearGradient id="u" x1="0.441" y1="0.542" x2="0.164" y2="0.493" xlink:href="#s"/><linearGradient id="v" x1="0.561" y1="0.66" x2="0.33" y2="-0.14" xlink:href="#p"/><linearGradient id="w" x1="0.94" y1="0.926" x2="0.665" y2="0.718" gradientUnits="objectBoundingBox"><stop offset="0" stop-color="#ad245f"/><stop offset="0.39" stop-color="#b02861"/><stop offset="0.793" stop-color="#b93469"/><stop offset="1" stop-color="#c13e70"/></linearGradient><linearGradient id="x" x1="0.663" y1="0.865" x2="0.317" y2="0.234" gradientUnits="objectBoundingBox"><stop offset="0" stop-color="#c96385"/><stop offset="0.362" stop-color="#ae3f6a"/><stop offset="0.777" stop-color="#941b50"/><stop offset="1" stop-color="#8b0e46"/></linearGradient><linearGradient id="y" x1="0.551" y1="0.454" x2="0.933" y2="0.112" xlink:href="#x"/><linearGradient id="z" x1="0.262" y1="0.426" x2="0.321" y2="0.442" xlink:href="#x"/><linearGradient id="aa" y1="0.5" x2="1" y2="0.5" gradientUnits="objectBoundingBox"><stop offset="0" stop-color="#ad245f"/><stop offset="0.529" stop-color="#98164f"/><stop offset="1" stop-color="#8b0e46"/></linearGradient><linearGradient id="ab" x1="0.571" y1="0.646" x2="0.697" y2="0.746" gradientUnits="objectBoundingBox"><stop offset="0" stop-color="#649f31"/><stop offset="1" stop-color="#97b33c"/></linearGradient><linearGradient id="ac" x1="0.593" y1="0.483" x2="0.736" y2="0.421" xlink:href="#ab"/><linearGradient id="ad" x1="0.488" y1="0.598" x2="0.743" y2="1.048" gradientUnits="objectBoundingBox"><stop offset="0" stop-color="#649f31"/><stop offset="0.4" stop-color="#75a534"/><stop offset="1" stop-color="#97b33c"/></linearGradient><linearGradient id="ae" x1="0.634" y1="0.624" x2="0.75" y2="0.683" xlink:href="#ab"/><linearGradient id="af" x1="0.813" y1="0.634" x2="0.632" y2="0.562" gradientUnits="objectBoundingBox"><stop offset="0" stop-color="#649f31"/><stop offset="0.266" stop-color="#6ba232"/><stop offset="0.67" stop-color="#80aa37"/><stop offset="1" stop-color="#97b33c"/></linearGradient><linearGradient id="ag" y1="0.5" x2="1" y2="0.5" gradientUnits="objectBoundingBox"><stop offset="0.093" stop-color="#56832f"/><stop offset="0.83" stop-color="#649f31"/></linearGradient><linearGradient id="ah" y1="0.5" x2="1" y2="0.5" gradientUnits="objectBoundingBox"><stop offset="0.038" stop-color="#56832f"/><stop offset="0.04" stop-color="#56832f"/><stop offset="0.3" stop-color="#59892f"/><stop offset="0.831" stop-color="#5e9230"/></linearGradient><linearGradient id="ai" y1="0.5" x2="1" y2="0.5" gradientUnits="objectBoundingBox"><stop offset="0" stop-color="#97b33c"/><stop offset="0.369" stop-color="#94b13b"/><stop offset="0.581" stop-color="#8cac39"/><stop offset="0.752" stop-color="#7ea337"/><stop offset="0.901" stop-color="#6a9633"/><stop offset="1" stop-color="#598b30"/></linearGradient><linearGradient id="aj" x1="0.241" y1="0.855" x2="0.794" y2="0.23" gradientUnits="objectBoundingBox"><stop offset="0.011" stop-color="#598b30"/><stop offset="0.178" stop-color="#6d9433"/><stop offset="0.349" stop-color="#7b9a36"/><stop offset="0.5" stop-color="#809d37"/><stop offset="0.671" stop-color="#7b9b36"/><stop offset="0.843" stop-color="#6f9733"/><stop offset="1" stop-color="#5e9230"/></linearGradient><linearGradient id="ak" x1="0.928" y1="0.522" x2="0.283" y2="0.027" gradientUnits="objectBoundingBox"><stop offset="0" stop-color="#598b30"/><stop offset="0.101" stop-color="#6a9633"/><stop offset="0.299" stop-color="#97b33c"/><stop offset="0.665" stop-color="#5d8f30"/><stop offset="0.876" stop-color="#80a437"/><stop offset="1" stop-color="#97b33c"/></linearGradient><linearGradient id="al" y1="0.5" x2="1" y2="0.5" gradientUnits="objectBoundingBox"><stop offset="0" stop-color="#649f31"/><stop offset="0.279" stop-color="#6da232"/><stop offset="0.733" stop-color="#85ac38"/><stop offset="1" stop-color="#97b33c"/></linearGradient><linearGradient id="am" x1="0.462" y1="0.469" x2="0.677" y2="0.861" gradientUnits="objectBoundingBox"><stop offset="0" stop-color="#598b30"/><stop offset="0.104" stop-color="#689533"/><stop offset="0.357" stop-color="#8aaa39"/><stop offset="0.495" stop-color="#97b33c"/></linearGradient><linearGradient id="an" x1="-2.131" y1="-2.755" x2="0.219" y2="0.136" xlink:href="#ab"/><linearGradient id="ao" x1="0.21" y1="0.137" x2="0.145" y2="0.03" gradientUnits="objectBoundingBox"><stop offset="0" stop-color="#649f31"/><stop offset="0.408" stop-color="#80aa3e"/><stop offset="0.813" stop-color="#a0b84d"/></linearGradient><linearGradient id="ap" x1="0.512" y1="0.55" x2="0.49" y2="0.455" gradientUnits="objectBoundingBox"><stop offset="0" stop-color="#5e9230"/><stop offset="0.503" stop-color="#5f9330"/><stop offset="0.685" stop-color="#669731"/><stop offset="0.814" stop-color="#729d34"/><stop offset="0.918" stop-color="#83a737"/><stop offset="1" stop-color="#97b33c"/></linearGradient></defs><g transform="translate(-338.555 -317.901)"><circle cx="16.243" cy="16.243" r="16.243" transform="translate(1219.137 399.437)" fill="#9e0052"/><circle cx="16.243" cy="16.243" r="16.243" transform="translate(1269.109 399.437)" fill="#65a840"/><circle cx="16.243" cy="16.243" r="16.243" transform="translate(1348.157 399.437)" fill="#65a840"/><path d="M1155.563,523.439h0a15.447,15.447,0,0,1-15.446-15.446v-93.11a15.446,15.446,0,0,1,15.446-15.446h0a15.445,15.445,0,0,1,15.446,15.446v93.11A15.446,15.446,0,0,1,1155.563,523.439Z" fill="#1a1818"/><path d="M0,0H12.023A18.869,18.869,0,0,1,30.892,18.869V62.03A15.446,15.446,0,0,1,15.446,77.476h0A15.446,15.446,0,0,1,0,62.03V0A0,0,0,0,1,0,0Z" transform="translate(1219.934 445.963)" fill="#1a1818"/><path d="M1159.728,476.855V445.963h60.206a30.892,30.892,0,0,1,30.892,30.892h-91.1Z" fill="#1a1818"/><path d="M1500.77,461.409c17.547-23.009,2.385-43.091,2.385-43.091-11.414-19.762-33.6-18.881-33.6-18.881h-57.842a12.647,12.647,0,0,0-12.647,12.647v98.707a12.648,12.648,0,0,0,12.647,12.648h57.842c.026,0,.051,0,.077,0,1.4.034,22.492.218,33.524-18.883,0,0,15.162-20.083-2.385-43.092ZM1480.482,439.1c0,7.261-5.452,6.89-5.452,6.89h-45.073V430.329h38.9C1481.035,430.329,1480.482,439.1,1480.482,439.1Zm-11.625,53.445h-38.9V476.884h38.9c.041,0,.08-.006.121-.006h6.052s5.452-.169,5.452,6.89C1480.482,483.768,1481.078,492.547,1468.857,492.547Z" fill="#1a1818"/><path d="M1365.813,446.26c-16.663,0-16.315,17.714-16.315,17.714h0c-1.133,12.45-9.782,25.43-24.167,25.43-13.777,0-23.008-12.98-24.164-25.43h0s-.991-17.714-16.315-17.714a16.315,16.315,0,0,0-16.315,16.315v1.4c.385,31.033,20.132,59.465,56.8,59.465,35.589,0,56.4-28.432,56.8-59.465v-1.4A16.314,16.314,0,0,0,1365.813,446.26Z" fill="#1a1818"/><text transform="translate(1138.342 579.851)" fill="#1a1818" font-size="37.362" font-family="SegoeUI, Segoe UI"><tspan x="0" y="0" xml:space="preserve">HIRE   I   USE   I   BUY</tspan></text><path d="M619.4,496.125c-6.068.158-7.932-3.3-8.19-6.42a19.631,19.631,0,0,1,1.555-8.54c-12.051-3.149-25.462-6.918-40.016-11.373-3.825,2.385-7.858,4.2-10.809,3.771-.9-.118-1.477-.981.572-3.889.25-.38.9-1.254,1.792-2.515-10.454-3.292-21.423-6.957-32.808-10.97-22.075,20.262-47.494,40.574-61.407,40.574-5.567,0-10.755-3.715-10.755-12.611,0-5.891,7.766-25.048,23.15-46.68q-17.316-7.108-35.35-15.323c-27.191,28.929-39.772,55.133-39.772,73.808,0,23.762,22.2,26.737,33.83,26.737,30.693,0,44.328-14.144,50.368-14.144s-3.6,14.386-12.726,20.131c-76.059,45.965-138.57,85.566-138.57,122.191,0,16.568,15.3,17.65,26.932,17.65s68.566-7.279,155.668-142.3c4.11-6.341,10.818-10.024,17.265-14.638,6.443-4.642,27.205-19.831,31.318-19.849s3.948,1.776,3.8,3.6c-.228,2.664-3.03,8.558-3.03,15.731s7.315,15.49,19.172,15.49c26.467,0,45.775-18.847,61.63-35.853-5.229-1.114-11.225-2.423-17.874-3.994C628.84,492.056,622.692,496.058,619.4,496.125ZM384.409,643.073c-5.265,0-7.644-2.848-7.644-7.8,0-16.255,56.516-58.9,63.2-58.968,1.727-.018,2.193.665,2.207,2.038C442.222,591.377,400.967,643.073,384.409,643.073ZM685.6,497.7c0,11.391,3.776,27.691,30.258,27.691,14.67,0,28.07-7.888,39.5-19.338a660.8,660.8,0,0,1-69.732-9.213C685.6,497.125,685.6,497.424,685.6,497.7Zm194.312,5.068c-.071,9.533,2.279,24.82,18.486,24.82,31.983,0,71.768-40.534,73.66-40.836,1.324-.2,1.554.351,1.554,1.634,0,1.44-4.521,17.482-51.286,74.264s-69.4,79.063-69.4,91.3a16.231,16.231,0,0,0,15.218,16.708c4.828,0,25.22-1.126,73.84-80.17,34.718-56.441,51.112-91.252,69.511-119.294C978.262,485.688,936.433,495.113,879.917,502.763Zm-96,4.84c-3.454,5.249-6.422,9.7-8.434,12.862,0,0-2.48,2.965,1.247,2.965h34.633c1.491,0,2.983-1.232,4.221-2.965.408-.6,3.961-6.02,8.482-12.94C811.117,507.975,797.741,508.04,783.913,507.6Z" fill="url(#a)"/><path d="M1044.268,388.764c0-7.982,16.136-24.309,23.392-24.309,5.181,0,8.7,5.554,8.7,10.573,0,13.736-15.39,23.746-20.034,23.746C1053.3,398.774,1044.268,394.7,1044.268,388.764ZM588.719,456.429c11.834,2.354,23.814,4.428,35.85,6.087-5.294,6.434-9.606,12.908-11.807,18.649-12.051-3.149-25.462-6.918-40.016-11.373a70,70,0,0,0,10.727-8.29C585.257,459.755,587.013,458.081,588.719,456.429Zm466.862-43.736c0,3.343-3.7,10.76-18.169,24.875-7.7,7.491-18.5,22.369-25.907,33.625-33.243,14.495-75.072,23.92-131.588,31.57.015-1.157.066-2.245.109-3.212.452-7.154,3.238-12.262,3.238-14.481,0-1.1-.187-2.4-1.669-2.4s-7.13,2.905-12.826,2.905c-20.289,0-13.612-13.859-19.05-13.859a5.068,5.068,0,0,0-3.962,2.483c-.651.974-13,19.963-21.7,33.33-12.945.45-26.321.515-40.149.078,9.442-14.376,22.625-34.766,30.879-50.983a525.075,525.075,0,0,0,74.448-20.807c-.072,1.16-.122,2.349-.122,3.615,0,11.874,3.71,17.815,6.872,17.815,2.994,0,7.055-3.07,10.839-7.574,33.7-40.286,60.749-44.8,70.45-44.8,6.678,0,9.279,5.6,9.279,10.805,0,19.855-35.144,49.056-57.539,55.668-6.077,1.788-9.28,5.567-9.28,9.637,0,5.592,2.725,11.141,11.508,11.141,23.757,0,50.123-31.922,72-55.676s39.341-32.284,44.536-32.284S1055.581,408.368,1055.581,412.693ZM932.22,454.1a2.739,2.739,0,0,0,2.859,2.651c6.935,0,28.8-19.8,28.8-28.169,0-1.21-1.439-2.045-2.474-2.045C954.073,426.535,932.22,447.575,932.22,454.1ZM653.73,465.8q11.691.98,23.572,1.5c-7.431,4.718-15.29,13.775-24.283,23.411-5.229-1.114-11.225-2.423-17.874-3.994C642.848,480.181,650.721,471.633,653.73,465.8Zm130.961-3.944c-6.883,15.282-16.955,31.819-29.332,44.2a660.8,660.8,0,0,1-69.732-9.213c.216-10.321,4.384-25.155,5.16-29.1,13.037.265,26.236.079,39.526-.583-4.7,7.346-8.189,14.769-8.023,19.9.136,4.209,2.965,6.6,7.384,6.6,14.266-.043,26.111-13.965,34.469-29.161Q774.409,463.367,784.691,461.853Zm-331.757-45.7c11.362,4.38,23.333,8.737,35.789,12.986-2.224,2.809-4.288,5.6-6.242,8.336q-17.316-7.108-35.35-15.323C449.007,420.162,450.933,418.175,452.934,416.15Zm121.354,37.228c-4.212,5.771-7.874,10.85-9.987,13.781-10.454-3.292-21.423-6.957-32.808-10.97,3.876-3.552,7.646-7.121,11.248-10.574C553.089,448.388,563.628,451.01,574.288,453.378Z" fill="url(#b)"/><path d="M607.775,408.432c0-2.348-3.325-4.268-7.42-4.268-3.512,0-18,2.421-29.126,13.173-4.02,3.893-14.947,15.285-28.488,28.278,10.348,2.773,20.887,5.4,31.547,7.763,9.594-13.18,22.017-30.043,25.334-33.8C605.011,413.442,607.775,410.471,607.775,408.432Zm30.492-50.539c1.3.18,1.75-.07,2.295-.992.78-1.275,19.688-34.914,19.688-34.914a.649.649,0,0,0-.323-1.055c-.452-.154-3.776-1.333-10.646-1.333-28.314,0-90.038,14.046-152.173,59.213a370.082,370.082,0,0,0-44.174,37.338c11.362,4.38,23.333,8.737,35.789,12.986a216.056,216.056,0,0,1,23.49-25.538c35.072-32.284,75.709-48.058,100.943-48.058C623.753,355.54,636.405,357.623,638.267,357.893Zm254.16,45.7c-9.47,0-27.986,22.647-31.337,22.647-2.7,0-5.831-10.371-8.892-14.483-4.457-5.933-10.581-7.414-28.028-7.414-8.713,0-13.722.737-21.522.737-8.886,0-10.956-.37-12.64-4.263-1.655-3.9-27.633-72.371-86.835-72.371-13.189,0-27.1,5.743-27.1,23.563s10.673,42.223,55.5,57.164c1.1.369,2.229.514,2.229,1.422,0,1.915-21.157,30.5-40.274,33.832-2.2.394-3.716-1.483-3.716-3.532s2.979-7.978,2.979-17.058c0-9.1-2.8-21.906-20.054-21.906-16.665,0-35.751,7.97-84.011,54.493,11.834,2.354,23.814,4.428,35.85,6.087,15.018-18.216,38.015-36.161,43.814-36.3,3.6-.1,5.093,1.434,5.2,2.988.558,6.42-8.677,10.9-14.4,15.046-6.67,4.832-8.841,6.341-8.153,10.4.366,2.226,3.6,2.8,3.99,6.738a8.675,8.675,0,0,1-1.288,4.409q11.691.98,23.572,1.5c3.354-2.106,6.612-3.348,9.827-3.348,2.745,0,3.785,1.2,3.785,2.945a7.709,7.709,0,0,1-.127.841c13.037.265,26.236.079,39.526-.583,6.921-10.762,16.449-21.326,21.028-24.085,7.654-4.628,11.85-9.2,11.779-11.8-.094-2.607-5.559-6.117-6.1-8.658-.645-2.985,1.747-4.583,7.078-3.239,7.647,1.939,13.19,2.177,13.363,7.779.137,4.589-4.72,21.646-13.313,37.342q10.266-1.117,20.548-2.632c6.623-14.611,10.3-28.053,10.3-35.46,0-1.627.536-3.585,3.5-3.585s11.2.88,14.838,1.241c3.978.411,9.164,3.626,9.164,11.049,0,4.671-3.073,12.45-7.7,21.522a525.075,525.075,0,0,0,74.448-20.807c1.061-15.7,8.778-22.106,8.778-27.276C898.018,405.017,896.576,403.6,892.427,403.6Zm-123.534,1.125c-13.108,0-63.121-19.486-63.121-44.343,0-7.874,5.355-12.432,12.913-12.432,35.866,0,53.748,51.023,53.748,54.259C772.433,403.827,771.467,404.723,768.893,404.723Z" fill="url(#c)"/><path d="M582.276,460.292a63.1,63.1,0,0,1-11.7,8.823q2.173.681,4.344,1.332a79.726,79.726,0,0,0,9.743-7.723c2.094-2.039,4.1-4,6.09-5.919q-2.03-.372-4.069-.8C585.236,457.4,583.78,458.826,582.276,460.292Z" fill="#36a9e2"/><path d="M881.595,480.958a11.979,11.979,0,0,0-3.339.856,30.909,30.909,0,0,1-9.493,2.037c-12.058,0-13.419-4.906-14.509-8.854-.615-2.218-1.4-4.994-4.535-4.994a6.665,6.665,0,0,0-5.381,3.247L836.866,484.7c-4.327,6.642-10.217,15.684-14.9,22.89,1.4-.052,2.786-.1,4.175-.147,3.876-5.949,8.629-13.258,13.6-20.895l7.437-11.417a3.438,3.438,0,0,1,2.543-1.708c.417,0,.6.2,1.239,2.49,1.183,4.245,3.14,11.359,17.8,11.359a33.438,33.438,0,0,0,10.581-2.225,20.7,20.7,0,0,1,2.157-.659,6.04,6.04,0,0,1,.029.677,15.475,15.475,0,0,1-.846,3.253,44.02,44.02,0,0,0-2.37,11.12c-.073,1.138-.109,2.313-.109,3.564,1.139-.161,2.293-.315,3.418-.477.015-1.031.051-2.012.1-2.876a41.633,41.633,0,0,1,2.214-10.292,15.564,15.564,0,0,0,1.024-4.292C884.963,481.358,882.6,480.958,881.595,480.958Z" fill="url(#d)"/><path d="M762.1,464.7a83.775,83.775,0,0,1-12.174,16.891c-6.619,6.843-13.44,10.335-20.248,10.36-2.063,0-5.537-.652-5.674-4.945-.172-5.057,3.518-12.593,8.376-19.962-1.4.086-2.8.146-4.192.217-4.506,7.256-7.78,14.57-7.608,19.846.165,5.107,3.66,8.263,9.1,8.246,7.775-.019,15.414-3.854,22.693-11.379a89.59,89.59,0,0,0,13.854-19.728C764.854,464.407,763.478,464.554,762.1,464.7Z" fill="url(#e)"/><path d="M611.114,480.722c1.118.308,2.215.586,3.311.874,2.064-5.3,6.176-11.711,12.137-18.808-1.333-.178-2.637-.358-3.971-.551C617.892,468.037,613.435,474.568,611.114,480.722Z" fill="#006ab5"/><path d="M529.681,455.542c1.2.419,2.4.856,3.6,1.278,3.776-3.487,7.573-7.082,11.357-10.7-1.283-.33-2.551-.68-3.842-1.014C537.247,448.507,533.507,452.036,529.681,455.542Z" fill="#36a9e2"/><path d="M651.9,465.637a52.709,52.709,0,0,1-6.391,8.558,112.809,112.809,0,0,1-12.475,12.029c1.419.329,2.8.662,4.155.977a124.891,124.891,0,0,0,10.891-10.75,48.2,48.2,0,0,0,7.482-10.5C654.346,465.841,653.128,465.737,651.9,465.637Z" fill="#36a9e2"/><path d="M655.442,485.593q-2.137,2.3-4.371,4.7c1.339.284,2.659.554,3.889.819,1.02-1.073,2-2.147,2.983-3.22,8.282-8.954,15.718-17.013,22.56-20.452-2-.079-4.006-.166-6.024-.26C668.445,471.508,662.207,478.253,655.442,485.593Z" fill="#1a73bb"/><path d="M480.833,436.793c1.075.453,2.177.907,3.28,1.346,1.965-2.781,4.092-5.6,6.319-8.431-1.154-.39-2.306-.781-3.445-1.171C484.815,431.307,482.774,434.072,480.833,436.793Z" fill="#005c9b"/><path d="M921.446,480.983c0-3.537,3-6.519,8.052-8.011,22.124-6.53,58.751-36.009,58.751-57.3h-3.41c0,19.293-35.128,47.792-56.3,54.041-6.577,1.934-10.524,6.154-10.524,11.273Z" fill="url(#f)"/><path d="M919.187,433.7c-4.406,4.335-8.968,9.253-13.67,14.866-3.6,4.3-7.242,6.968-9.527,6.968-1.748,0-5.16-4.861-5.16-16.1,0-1.5.058-2.927.166-4.257-1.162.432-2.337.861-3.5,1.277-.05.947-.088,1.944-.088,2.98,0,13.4,4.451,19.508,8.586,19.508,4.613,0,9.572-5.13,12.142-8.181,4.284-5.111,8.47-9.654,12.5-13.67Z" fill="url(#g)"/><path d="M920.634,437.085c28.309-28.075,50.032-30.518,56.645-30.518,7.2,0,7.56,7.587,7.56,9.1h3.41c0-6.229-3.4-12.5-10.97-12.5-8.769,0-30.328,3.288-58.092,30.531Z" fill="url(#h)"/><path d="M965.564,428.58c0-2.21-2.192-3.747-4.164-3.747-8.065,0-30.885,21.6-30.885,29.265a4.44,4.44,0,0,0,4.557,4.366C943.109,458.464,965.564,437.985,965.564,428.58ZM933.918,454.1c0-5.789,21.322-25.846,27.482-25.846a1.144,1.144,0,0,1,.761.392c-.013,7.306-21.013,26.417-27.089,26.417A1.079,1.079,0,0,1,933.918,454.1Z" fill="url(#i)"/><path d="M1067.632,362.741c-8.425,0-25.074,17.26-25.074,26.023,0,7.05,9.8,11.719,13.768,11.719,5.26,0,21.745-10.559,21.745-25.455C1078.071,369.092,1073.881,362.741,1067.632,362.741Zm-11.306,34.325c-2.535,0-10.367-3.739-10.367-8.3,0-6.764,15.2-22.613,21.673-22.613,4.144,0,7.022,4.686,7.022,8.877C1074.654,387.7,1060.153,397.066,1056.326,397.066Z" fill="url(#j)"/><path d="M781.89,507.535c1.355.055,2.687.09,4.006.122,9.708-14.789,22.905-35.247,31-51.468-1.426.283-2.83.582-4.249.867C804.131,473.471,790.768,494.031,781.89,507.535Z" fill="#4cafe5"/><path d="M445.467,421.379c1.09.485,2.164,1,3.237,1.484,1.907-2,3.892-4.024,5.934-6.061q-1.738-.67-3.454-1.329C449.206,417.457,447.288,419.428,445.467,421.379Z" fill="#36a9e2"/><path d="M572.467,452.962c-4.241,5.864-7.894,10.89-9.87,13.641,1.131.362,2.291.742,3.4,1.1,2.244-3.094,5.925-8.184,10.125-13.931C574.889,453.507,573.688,453.242,572.467,452.962Z" fill="#0061a0"/><path d="M688.215,471.239c-1.442,6.022-4.058,17-4.3,25.288,1.126.2,2.266.423,3.4.625.128-7.943,2.76-19.074,4.211-25.121.546-2.222.846-3.485.983-4.279-1.147-.01-2.314-.028-3.476-.046C688.88,468.546,688.536,469.9,688.215,471.239Z" fill="#36a9e2"/><path d="M782.7,462.157a179.331,179.331,0,0,1-11.54,21.176,129.63,129.63,0,0,1-18.086,22.53c1.449.11,2.91.265,4.357.357,12.359-12.69,22.41-29.338,29.261-44.655C785.359,461.756,784.033,461.965,782.7,462.157Z" fill="#1a73bb"/><path d="M918.013,480.983c0,7.4,4.2,12.065,11.341,12.749,7.36.148,12.1-1.153,20.241-5.115,16.413-8.72,33.013-26.964,48.139-43.619l6.763-7.393c21.91-23.744,38.891-31.744,43.29-31.744v-3.406c-6.005,0-23.744,8.916-45.8,32.843l-6.769,7.423c-20.328,22.36-43.376,47.693-63.966,47.693-8.11,0-9.8-5.125-9.8-9.431Z" fill="url(#k)"/><path d="M1047.787,405.861c4.19,0,6.09,3.45,6.09,6.832,0,1.516-1.282,7.681-17.683,23.647-8.2,8.013-19.531,23.77-27.468,36.044,1.946-.825,3.861-1.658,5.724-2.488,6.8-10.141,17.1-24.252,24.122-31.105,12.245-11.93,18.721-20.933,18.721-26.1,0-5.088-3.281-10.238-9.506-10.238Z" fill="url(#l)"/><path d="M619.354,494.442c-4,.093-6.17-1.547-6.455-4.872a18.63,18.63,0,0,1,1.526-7.974c-1.1-.288-2.193-.566-3.311-.874a21.171,21.171,0,0,0-1.605,9.12c.429,5.162,4.134,8.153,9.931,8,4.2-.113,11.206-4.949,17.753-10.643-1.354-.315-2.736-.648-4.155-.977C627.227,491.025,621.882,494.359,619.354,494.442Z" fill="url(#m)"/><path d="M559.616,473.762a2.546,2.546,0,0,0,2.1,1.486c3.829.54,8.837-1.913,13.207-4.8q-2.174-.655-4.344-1.332c-2.734,1.561-5.385,2.673-7.423,2.755a7.308,7.308,0,0,1,.747-1.215c.264-.387,1-1.427,2.1-2.949-1.11-.361-2.27-.741-3.4-1.1-.776,1.046-1.271,1.779-1.492,2.085C559.542,470.924,559.07,472.5,559.616,473.762Z" fill="url(#n)"/><path d="M439.95,574.593c-4.463.038-21.744,12.4-35.193,23.822-11.091,9.421-29.683,26.716-29.683,36.862,0,6.134,3.3,9.5,9.335,9.5,7.712,0,18.672-9.4,26.5-17.279,15.6-15.672,33.014-40.025,32.964-49.16a3.725,3.725,0,0,0-.98-2.769A3.923,3.923,0,0,0,439.95,574.593Zm.508,3.8c0,7.356-15.812,30.475-31.961,46.7-10.288,10.34-19.071,16.263-24.088,16.263-4.1,0-5.911-1.868-5.911-6.082,0-15.052,55.032-57.1,61.481-57.27,0,0,.28.039.467.05,0,.134.012.29.012.29Z" fill="url(#o)"/><path d="M470.086,498.475c14.2,0,38.395-18.749,63.2-41.655-1.2-.422-2.4-.859-3.6-1.278-21.659,19.849-46.29,39.513-59.6,39.513-5.683,0-9.065-4.071-9.065-10.908,0-5.954,7.96-24.847,23.092-46.008-1.1-.439-2.205-.893-3.28-1.346-15.378,21.671-23.228,40.951-23.228,47.354C457.605,494.722,464.332,498.475,470.086,498.475Z" fill="url(#p)"/><path d="M341.966,650.872c0-34.793,57.089-71.974,137.757-120.731l-1.8-2.9c-81.614,49.307-139.368,87.064-139.368,123.63Z" fill="url(#q)"/><path d="M441.189,520.992c-12,0-32.117-3.255-32.117-25.035,0-17.02,11.146-42.97,39.632-73.094-1.073-.484-2.147-1-3.237-1.484-28.615,30.583-39.828,57.068-39.828,74.578,0,18.073,12.953,28.455,35.55,28.455Z" fill="url(#r)"/><path d="M479.723,530.141c7.558-4.769,16.656-16.194,15.281-20.944a3.328,3.328,0,0,0-3.447-2.354c-2.279,0-5,1.42-8.783,3.379-7.774,4.038-20.741,10.77-41.585,10.77v3.42c21.688,0,35.122-6.989,43.153-11.16,3.224-1.666,5.919-3.051,7.215-3.051.194,0,.267.121.267.342,0,2.463-6.12,11.779-13.9,16.7" fill="#9b0c4b"/><path d="M570.526,511.059c0,8.3,8.369,17.2,20.863,17.2,27.57,0,47.495-19.82,63.571-37.149-1.23-.265-2.55-.535-3.889-.819-15.395,16.451-34.333,34.542-59.682,34.542-11.4,0-17.452-8.007-17.452-13.775Z" fill="url(#s)"/><path d="M338.555,650.872c0,19.372,19.353,19.372,28.638,19.372,6.291,0,23.794-2.041,50.519-20.83,33.681-23.693,69.53-64.847,106.6-122.259,3.059-4.743,7.794-7.981,12.788-11.4l4.027-2.784,1.519-1.1c21.071-15.222,26.938-18.17,28.8-18.445,1.52-.2,1.856.16,2,.268l2.4-2.433c-1.061-1.092-2.086-1.235-4.4-1.235-3.16,0-11.794,5.355-30.8,19.064l-1.519,1.108-3.956,2.746c-5.3,3.6-10.309,7.029-13.742,12.354C434.534,659.995,377.7,666.817,367.193,666.817c-15.132,0-25.227-2.716-25.227-15.945Z" fill="url(#t)"/><path d="M715.848,523.686c-19.2,0-28.53-8.5-28.53-25.991v-.543c-1.132-.2-2.272-.425-3.4-.625-.006.395-.012.784-.012,1.168,0,19.244,11.04,29.4,31.94,29.4,15.461,0,29.61-8.58,41.583-20.875-1.447-.092-2.908-.247-4.357-.357C743.031,515.591,730.334,523.686,715.848,523.686Z" fill="url(#u)"/><path d="M814.177,519.467c-1.191,1.66-2.237,2.251-2.818,2.251H776.7a.962.962,0,0,1,.1-.172l.073-.068,5.738-8.8c1.038-1.576,2.144-3.253,3.289-5.022-1.319-.032-2.651-.067-4.006-.122-.73,1.14-1.459,2.232-2.133,3.275,0,0-5.639,8.618-5.677,8.679a4.879,4.879,0,0,0-1.109,2.78,2.68,2.68,0,0,0,.249,1.148c.375.791,1.271,1.725,3.506,1.725h34.633c1.942,0,3.87-1.283,5.589-3.686.459-.653,4.05-6.137,9.191-14.008-1.389.048-2.778.1-4.175.147C817.8,513.99,814.56,518.93,814.177,519.467Z" fill="url(#v)"/><path d="M898.4,525.855c-4.821,0-8.627-1.454-11.355-4.366-4.628-4.923-5.483-13.12-5.425-18.959-1.125.162-2.279.316-3.418.477v.211c0,7,1.284,15.225,6.341,20.6,3.4,3.619,8.052,5.455,13.857,5.455Z" fill="url(#w)"/><path d="M573.937,511.068a36.8,36.8,0,0,1,1.9-10.679,31.653,31.653,0,0,0,1.075-4.439l.064-.914a4.9,4.9,0,0,0-1.131-3.772l-1.168,1.186-1.234,1.233a1.259,1.259,0,0,1,.259,1.039,9.577,9.577,0,0,1-.246,1.319c-.1.421-.413,1.8-.893,3.373a40.334,40.334,0,0,0-2.036,11.654Z" fill="url(#x)"/><path d="M857.17,662.683a15.065,15.065,0,0,1-2.529-8.734c0-8.361,12.28-22.852,36.755-51.729,9.27-10.945,19.788-23.364,32.255-38.5,16.673-20.232,27.956-35.267,35.608-46.366l-3.54-.884c-7.534,10.843-18.578,25.5-34.712,45.09-12.416,15.1-22.934,27.505-32.227,38.46-25.777,30.421-37.572,44.317-37.572,53.929a18.186,18.186,0,0,0,3.812,11.542Z" fill="url(#y)"/><path d="M855.02,665.491c3.748,4.753,9.436,6.873,13.134,6.873,16.693,0,42.73-28,75.3-80.982,17.832-28.983,31.539-53.3,43.63-74.765,11.732-20.766,17.87-32.547,27.365-46.721-1.863.83-3.778,1.663-5.724,2.488-8.677,13.431-14.038,23.821-24.605,42.555-12.086,21.441-25.794,45.725-43.576,74.642-42.441,69.061-63.579,79.359-72.391,79.359a14.841,14.841,0,0,1-10.984-6.257Z" fill="url(#z)"/><path d="M959.259,517.354c15.785-22.862,16.066-28.881,16.066-28.973a3.411,3.411,0,0,0-.977-2.773,2.9,2.9,0,0,0-2.535-.538c-.71.211-1.342.556-5.338,4.008-11.621,10.061-42.524,36.777-68.086,36.777v3.421c26.831,0,58.435-27.33,70.315-37.613,1.144-.993,2.213-1.9,2.995-2.548-.718,2.2-3.735,9.745-15.98,27.355Z" fill="url(#aa)"/><path d="M813.487,422.358l-1.705-.172c-4.24-.433-10.662-1.089-13.291-1.089-3.259,0-5.194,1.973-5.194,5.273,0,7.469-3.832,21.063-10.6,35.787,1.333-.192,2.659-.4,3.992-.592,6.419-14.372,10.016-27.571,10.016-35.2,0-1.444.394-1.86,1.783-1.86,2.473,0,9.028.678,12.947,1.076l1.721.16c2.829.295,7.629,2.58,7.629,9.352,0,4.6-3.3,12.593-8.139,21.958,1.419-.285,2.823-.584,4.249-.867,4.4-8.831,7.293-16.4,7.293-21.091C824.191,427.076,818.653,422.869,813.487,422.358Z" fill="url(#ab)"/><path d="M718.685,346.252c-8.886,0-14.616,5.549-14.616,14.128,0,26.456,51.27,46.059,64.824,46.059,4.558,0,5.246-2.659,5.246-4.232C774.139,398.826,756.314,346.252,718.685,346.252Zm50.208,56.768c-12.042,0-61.422-19.161-61.422-42.64,0-6.616,4.308-10.72,11.214-10.72,34.032,0,51.784,49.122,52.043,52.587C770.715,402.609,770.715,403.02,768.893,403.02Z" fill="url(#ac)"/><path d="M687.129,462.237c-4.2,0-8.387,1.876-12.65,4.942,2.018.094,4.021.181,6.024.26a14.714,14.714,0,0,1,6.626-1.784c2.073,0,2.073.7,2.073,1.217-.021.136-.078.422-.166.834,1.162.018,2.329.036,3.476.046a5.306,5.306,0,0,0,.094-.88C692.606,465.79,692.226,462.237,687.129,462.237Z" fill="url(#ad)"/><path d="M752.215,444.518c7.995-4.836,12.718-9.816,12.609-13.315-.077-2.032-1.8-3.833-3.632-5.751-.982-1.051-2.357-2.5-2.514-3.216-.122-.561-.071-.975.157-1.182.482-.454,2.035-.741,4.831-.04l3.438.822c6.439,1.464,8.54,2.206,8.647,5.371.107,4-4.714,21.545-13.655,37.49,1.382-.143,2.758-.29,4.125-.454,8.37-15.569,13.085-32.184,12.926-37.135-.179-6.082-5.323-7.251-11.293-8.616l-3.337-.79c-4.678-1.179-6.956-.165-8.074.894a4.609,4.609,0,0,0-1.1,4.359c.357,1.663,1.828,3.221,3.4,4.854.983,1.044,2.636,2.774,2.65,3.5.058,1.4-2.886,5.417-10.954,10.288-4.967,3-15.161,14.262-22.255,25.663,1.391-.071,2.795-.131,4.192-.217C739.062,456.892,748,447.055,752.215,444.518Z" fill="url(#ae)"/><path d="M609.494,408.432c0-3.717-4.6-5.977-9.139-5.977-3.41,0-18.586,2.326-30.322,13.672l-6.248,6.252c-5.547,5.6-13.664,13.807-22.986,22.723,1.291.334,2.559.684,3.842,1.014,7.335-7.072,14.615-14.311,21.573-21.343l6.189-6.207c10.8-10.43,25.018-12.705,27.952-12.705,3.359,0,5.724,1.459,5.724,2.571Z" fill="url(#af)"/><path d="M606.079,408.432c0,1.219-2.7,4.284-6.442,8.51l-1.305,1.5c-3.424,3.9-16.2,21.243-25.865,34.523,1.221.28,2.422.545,3.656.813,9.523-13.054,21.594-29.447,24.767-33.08l1.318-1.5c5.009-5.67,7.286-8.255,7.286-10.765Z" fill="url(#ag)"/><path d="M551.812,372.856a210.181,210.181,0,0,0-40.76,29.505,217.2,217.2,0,0,0-24.065,26.176c1.139.39,2.291.781,3.445,1.171a212.419,212.419,0,0,1,22.928-24.842,208.875,208.875,0,0,1,40-28.989Z" fill="url(#ah)"/><path d="M692.175,442.494a2.125,2.125,0,0,1-.659-1.594,16.784,16.784,0,0,1,.645-2.676,48.74,48.74,0,0,0,2.314-14.382,30.11,30.11,0,0,0-2.458-12.791c-3.331-7.062-9.887-10.819-19.287-10.819-17.9,0-37.937,9.263-86.047,55.771q2.039.426,4.069.8c46.04-44.26,65.17-53.162,81.978-53.162,7.344,0,12.488,2.464,15.434,7.34,1.914,3.251,2.908,7.52,2.908,12.859a45.668,45.668,0,0,1-2.177,13.441,14.708,14.708,0,0,0-.8,3.617,5.568,5.568,0,0,0,1.871,4.208Z" fill="url(#ai)"/><path d="M689.969,445.108a4.7,4.7,0,0,0,3.854,1.008c19.847-3.476,41.671-32.409,41.671-35.516l-3.754.41c-2.982,4.986-21.56,28.766-38.519,31.753a1.29,1.29,0,0,1-1.046-.269Z" fill="url(#aj)"/><path d="M898.5,404.115c-1.168-1.5-3.172-2.22-6.083-2.22-6.612,0-16.092,8.879-23.686,16.018-2.844,2.663-6.3,5.921-7.565,6.522-.968-.656-2.723-4.348-3.808-6.648a43.615,43.615,0,0,0-3.81-7.028c-4.751-6.377-11.083-8.112-29.388-8.112-4.521,0-8.059.187-11.47.388l.184,3.4c3.369-.177,6.857-.382,11.286-.382,17.174,0,22.649,1.387,26.667,6.736a41.809,41.809,0,0,1,3.431,6.452c2.308,4.865,4.112,8.709,6.836,8.709,1.763,0,3.9-1.842,9.972-7.562,6.413-6,16.093-15.071,21.351-15.071,3.539,0,3.891.924,3.891,3.216,0,1.548-1.031,3.552-2.364,6.1-2.372,4.559-5.876,11.273-6.448,21.81,1.167-.416,2.342-.845,3.5-1.277.744-8.926,3.709-14.641,5.967-18.953,1.562-2.952,2.773-5.285,2.773-7.681A7.073,7.073,0,0,0,898.5,404.115Z" fill="url(#ak)"/><path d="M812.686,403.035l-10.053.358c-9.015,0-9.859-.458-11.048-3.242l-3.144,1.343c2.19,5.1,5.73,5.3,14.192,5.3l10.237-.356Z" fill="url(#al)"/><path d="M675.3,429.054c-.2-2.175-2.127-4.679-6.951-4.55-6.022.138-24.967,14.83-39.262,30.246-.635.675-1.237,1.357-1.841,2.026-1.532,1.707-3.107,3.555-4.657,5.461,1.334.193,2.638.373,3.971.551,1.023-1.223,2.092-2.457,3.224-3.733,1.2-1.325,2.4-2.626,3.617-3.912,14.522-15.218,31.037-27.127,35.042-27.231,2.015-.045,3.367.522,3.441,1.435a3.672,3.672,0,0,1,.027.383c0,4.041-5.371,7.564-10.13,10.7l-3.6,2.436-.172.111c-5.954,4.309-8.826,6.376-8.826,10.3a9.445,9.445,0,0,0,.144,1.633,5.859,5.859,0,0,0,2.048,3.265,5.489,5.489,0,0,1,1.763,2.582h3.5a8.645,8.645,0,0,0-2.86-5.038c-.638-.6-1.023-1-1.081-1.357-.452-2.785.493-3.686,7.32-8.607l.174-.111,3.467-2.362C669.364,439.533,675.81,435.279,675.3,429.054Z" fill="url(#am)"/><path d="M653.3,461.565a.9.9,0,0,1,.015.191,8.954,8.954,0,0,1-1.41,3.881c1.224.1,2.442.2,3.662.312a9.2,9.2,0,0,0,1.136-4.726c-.021-.171-.049-.319-.062-.466h-3.5A3.759,3.759,0,0,1,653.3,461.565Z" fill="url(#an)"/><path d="M791.349,399.545c-7.023-17.069-34.045-72.807-88.176-72.807-13.535,0-22.978,5.317-26.832,14.647a27.233,27.233,0,0,0-1.985,10.629c0,14.9,7.38,42.351,56.674,58.772l.6.187s.093.029.11.037l3.754-.41c0-2.034-1.879-2.585-2.873-2.878l-.518-.166C684.861,391.8,677.775,366,677.775,352.014a23.805,23.805,0,0,1,1.8-9.557c4.684-10.919,17.439-12.3,23.6-12.3,52,0,78.224,54.127,85.015,70.7l.253.637,3.144-1.343Z" fill="url(#ao)"/><path d="M661.967,320.721a2.343,2.343,0,0,0-1.517-1.409,27.212,27.212,0,0,0-5.33-1.1v3.425a26.009,26.009,0,0,1,3.05.568c-6.7,11.921-18.5,32.835-19.078,33.817a1.527,1.527,0,0,0-.122.209c-.142,0-.444-.029-.444-.029l-.773-.119a171.121,171.121,0,0,0-24.6-2.256c-15.606,0-37.858,6.043-61.344,19.024l1.549,3.021c22.946-12.714,44.636-18.631,59.795-18.631a167.1,167.1,0,0,1,24.08,2.211l.8.116a4.047,4.047,0,0,0,2.279-.171,3.578,3.578,0,0,0,1.7-1.619c.788-1.291,18.952-33.577,19.731-34.942A2.488,2.488,0,0,0,661.967,320.721Z" fill="url(#ap)"/><path d="M498.122,380.187c63.935-46.484,125.087-58.88,151.144-58.88a38.481,38.481,0,0,1,5.881.335v-3.425a40.262,40.262,0,0,0-5.881-.316c-26.467,0-88.505,12.528-153.146,59.52a369.213,369.213,0,0,0-44.936,38.052q1.719.662,3.454,1.329A371.378,371.378,0,0,1,498.122,380.187Z" fill="#97b33c"/></g></svg>