<svg xmlns="http://www.w3.org/2000/svg" width="51" height="51" viewBox="0 0 51 51"><g transform="translate(-246 -3162)"><circle cx="25.5" cy="25.5" r="25.5" transform="translate(246 3162)" fill="#a90044"/><path d="M255.608,3198h0a.6.6,0,0,1-.607-.6v-12a3.021,3.021,0,0,1,3.036-3h3.035V3177a3.022,3.022,0,0,1,3.036-3h15.784a3.022,3.022,0,0,1,3.036,3v5.4h3.035a3.022,3.022,0,0,1,3.037,3v12h0a.6.6,0,0,1-.607.6Zm27.319-1.2h4.856v-11.4a1.812,1.812,0,0,0-1.822-1.8h-3.035Zm-20.642,0h19.428V3189H273.16l-.735,1.139a.736.736,0,0,1-.6.32.7.7,0,0,1-.582-.339l-.653-1.12h-.278l-3.609,6.044a.688.688,0,0,1-.954.148.671.671,0,0,1-.2-.856l3.326-5.336h-6.588Zm-6.07-11.4v11.4h4.856v-13.2h-3.035A1.812,1.812,0,0,0,256.215,3185.4Zm25.5,2.4V3177a1.813,1.813,0,0,0-1.822-1.8H264.106a1.812,1.812,0,0,0-1.822,1.8V3187.8h7.338l.671-1.077a.691.691,0,0,1,.945-.216.677.677,0,0,1,.23.235l.25,1.058h.588l4.718-7.321a.691.691,0,0,1,.965-.106.673.673,0,0,1,.193.818l.016.014-4.261,6.6Z" fill="#fff"/><path d="M255.608,3198h0a.6.6,0,0,1-.607-.6v-12a3.021,3.021,0,0,1,3.036-3h3.035V3177a3.022,3.022,0,0,1,3.036-3h15.784a3.022,3.022,0,0,1,3.036,3v5.4h3.035a3.022,3.022,0,0,1,3.037,3v12h0a.6.6,0,0,1-.607.6Zm27.319-1.2h4.856v-11.4a1.812,1.812,0,0,0-1.822-1.8h-3.035Zm-20.642,0h19.428V3189H273.16l-.735,1.139a.736.736,0,0,1-.6.32.7.7,0,0,1-.582-.339l-.653-1.12h-.278l-3.609,6.044a.688.688,0,0,1-.954.148.671.671,0,0,1-.2-.856l3.326-5.336h-6.588Zm-6.07-11.4v11.4h4.856v-13.2h-3.035A1.812,1.812,0,0,0,256.215,3185.4Zm25.5,2.4V3177a1.813,1.813,0,0,0-1.822-1.8H264.106a1.812,1.812,0,0,0-1.822,1.8V3187.8h7.338l.671-1.077a.691.691,0,0,1,.945-.216.677.677,0,0,1,.23.235l.25,1.058h.588l4.718-7.321a.691.691,0,0,1,.965-.106.673.673,0,0,1,.193.818l.016.014-4.261,6.6Z" fill="#fff"/></g></svg>