<svg xmlns="http://www.w3.org/2000/svg" width="51" height="51" viewBox="0 0 51 51"><g transform="translate(-1041 -2974)"><circle cx="25.5" cy="25.5" r="25.5" transform="translate(1041 2974)" fill="#a90044"/><path d="M1070.961,2987a3.579,3.579,0,0,0-3.443,2.681H1054v1.786h13.523a3.551,3.551,0,0,0,6.885,0H1079v-1.786H1074.4A3.576,3.576,0,0,0,1070.961,2987Zm0,1.786a1.773,1.773,0,1,1-.026,0Zm-8.929,7.145a3.579,3.579,0,0,0-3.443,2.681H1054v1.786h4.6a3.551,3.551,0,0,0,6.885,0H1079v-1.786h-13.523a3.579,3.579,0,0,0-3.443-2.681Zm0,1.786a1.794,1.794,0,1,1-.022,0h.022Zm8.929,7.145a3.579,3.579,0,0,0-3.443,2.681H1054v1.786h13.523a3.551,3.551,0,0,0,6.885,0H1079v-1.786H1074.4a3.579,3.579,0,0,0-3.443-2.681Zm0,1.786a1.931,1.931,0,1,1-.025,0h.025Z" fill="#fff"/></g></svg>