<svg xmlns="http://www.w3.org/2000/svg" width="51" height="51" viewBox="0 0 51 51"><g transform="translate(-635 -3160)"><circle cx="25.5" cy="25.5" r="25.5" transform="translate(635 3160)" fill="#a90044"/><path d="M651.808,3195.2A13,13,0,1,1,661,3199,12.915,12.915,0,0,1,651.808,3195.2ZM649.614,3186A11.385,11.385,0,1,0,661,3174.62,11.4,11.4,0,0,0,649.614,3186Zm11.473,5.973h0a.765.765,0,0,1-.364-.092c-4.878-2.68-5.606-5.611-5.606-7.117,0-2.237,1.48-3.99,3.37-3.99a3.779,3.779,0,0,0,5.2,0c1.894,0,3.373,1.752,3.373,3.99,0,1.507-.728,4.436-5.6,7.114a.774.774,0,0,1-.366.1Zm-4.439-7.211c0,1.127.582,3.333,4.438,5.564,3.857-2.231,4.439-4.438,4.439-5.564,0-1.377-.806-2.455-1.836-2.455a2.433,2.433,0,0,0-1.953,1.094.767.767,0,0,1-1.309-.016,2.4,2.4,0,0,0-1.949-1.078C657.452,3182.315,656.648,3183.392,656.648,3184.767Z" fill="#fff"/></g></svg>