<svg xmlns="http://www.w3.org/2000/svg" width="51" height="51" viewBox="0 0 51 51"><g transform="translate(-246 -2974)"><circle cx="25.5" cy="25.5" r="25.5" transform="translate(246 2974)" fill="#a90044"/><path d="M263.065,3011.507l-4.067.339,5.141-10.278-.3-.067a2.634,2.634,0,0,1-1.815-.984,2.53,2.53,0,0,1,.067-2.035,2.585,2.585,0,0,0,.27-.949,2.612,2.612,0,0,0-.638-.713,2.04,2.04,0,0,1,0-3.6,1.107,1.107,0,0,0,.4-1.7,1.95,1.95,0,0,1,1.748-3.019,2.542,2.542,0,0,0,.908-.306,2.611,2.611,0,0,0,.3-.916,2.585,2.585,0,0,1,.941-1.865,2.461,2.461,0,0,1,2.017.068,2.551,2.551,0,0,0,.977.2,2.611,2.611,0,0,0,.706-.611A2.562,2.562,0,0,1,271.5,2984a2.637,2.637,0,0,1,1.781,1.051,2.575,2.575,0,0,0,.706.644,2.523,2.523,0,0,0,.975-.2,2.461,2.461,0,0,1,2.017-.068,2.669,2.669,0,0,1,.975,1.832,2.614,2.614,0,0,0,.3.915,2.547,2.547,0,0,0,.908.306,2.632,2.632,0,0,1,1.815.984,2.526,2.526,0,0,1-.068,2.035,1.107,1.107,0,0,0,.4,1.7,2.04,2.04,0,0,1,0,3.6,1.09,1.09,0,0,0-.436,1.7,1.95,1.95,0,0,1-1.748,3.019l-.3.067,5.177,10.274-4.067-.339-2.118,3.5-4.874-9.7a1.773,1.773,0,0,1-2.891,0l-4.874,9.7Zm14.857.712,1.31-2.136,2.488.2-3.8-7.5a2.6,2.6,0,0,1-.975,1.8,2.462,2.462,0,0,1-2.017-.068,2.542,2.542,0,0,0-.975-.2Zm-12.84,0,3.966-7.936a2.542,2.542,0,0,0-.975.2,1.932,1.932,0,0,1-2.992-1.731l-3.8,7.53,2.488-.2Zm4.3-9.191a3.294,3.294,0,0,1,1.345,1.018c.233.27.6.679.773.679s.368-.238.773-.679a3.047,3.047,0,0,1,1.345-1.018,3.672,3.672,0,0,1,1.715.2,2.778,2.778,0,0,0,.94.17c.134-.068.2-.374.336-.949a3.255,3.255,0,0,1,.672-1.595,3.659,3.659,0,0,1,1.58-.678,3.3,3.3,0,0,0,.94-.339c.1-.1,0-.405-.168-.95a3.426,3.426,0,0,1-.2-1.73,3.337,3.337,0,0,1,1.007-1.362c.268-.235.672-.609.672-.78s-.235-.372-.672-.78a3.059,3.059,0,0,1-1.008-1.356,3.816,3.816,0,0,1,.2-1.73c.067-.3.269-.848.168-.984s-.37-.2-.941-.339a3.181,3.181,0,0,1-1.579-.678,3.7,3.7,0,0,1-.672-1.594,3.349,3.349,0,0,0-.337-.949c-.1-.1-.4,0-.94.169a2.283,2.283,0,0,1-3.058-.813c-.234-.271-.606-.68-.773-.68s-.369.239-.774.68a3.034,3.034,0,0,1-1.344,1.017,3.65,3.65,0,0,1-1.715-.2,2.757,2.757,0,0,0-.94-.169c-.135.068-.2.373-.337.949a3.231,3.231,0,0,1-.672,1.594,3.638,3.638,0,0,1-1.579.678,3.26,3.26,0,0,0-.941.339c-.1.1,0,.4.168.949a3.416,3.416,0,0,1,.2,1.73,3.318,3.318,0,0,1-1.008,1.359c-.268.236-.672.61-.672.78s.235.372.672.78a3.062,3.062,0,0,1,1.008,1.357,3.812,3.812,0,0,1-.2,1.729,3.163,3.163,0,0,0-.168.984c.1.137.337.2.909.342a3.182,3.182,0,0,1,1.579.679,3.7,3.7,0,0,1,.672,1.594,2.558,2.558,0,0,0,.337.949c.134.1.671-.068.974-.17a4.377,4.377,0,0,1,1.278-.272Zm-2.219-7.9,1.008-.882,1.748,2.1,5.144-3.8.773,1.085-6.117,4.546Z" fill="#fff"/><path d="M263.065,3011.507l-4.067.339,5.141-10.278-.3-.067a2.634,2.634,0,0,1-1.815-.984,2.53,2.53,0,0,1,.067-2.035,2.585,2.585,0,0,0,.27-.949,2.612,2.612,0,0,0-.638-.713,2.04,2.04,0,0,1,0-3.6,1.107,1.107,0,0,0,.4-1.7,1.95,1.95,0,0,1,1.748-3.019,2.542,2.542,0,0,0,.908-.306,2.611,2.611,0,0,0,.3-.916,2.585,2.585,0,0,1,.941-1.865,2.461,2.461,0,0,1,2.017.068,2.551,2.551,0,0,0,.977.2,2.611,2.611,0,0,0,.706-.611A2.562,2.562,0,0,1,271.5,2984a2.637,2.637,0,0,1,1.781,1.051,2.575,2.575,0,0,0,.706.644,2.523,2.523,0,0,0,.975-.2,2.461,2.461,0,0,1,2.017-.068,2.669,2.669,0,0,1,.975,1.832,2.614,2.614,0,0,0,.3.915,2.547,2.547,0,0,0,.908.306,2.632,2.632,0,0,1,1.815.984,2.526,2.526,0,0,1-.068,2.035,1.107,1.107,0,0,0,.4,1.7,2.04,2.04,0,0,1,0,3.6,1.09,1.09,0,0,0-.436,1.7,1.95,1.95,0,0,1-1.748,3.019l-.3.067,5.177,10.274-4.067-.339-2.118,3.5-4.874-9.7a1.773,1.773,0,0,1-2.891,0l-4.874,9.7Zm14.857.712,1.31-2.136,2.488.2-3.8-7.5a2.6,2.6,0,0,1-.975,1.8,2.462,2.462,0,0,1-2.017-.068,2.542,2.542,0,0,0-.975-.2Zm-12.84,0,3.966-7.936a2.542,2.542,0,0,0-.975.2,1.932,1.932,0,0,1-2.992-1.731l-3.8,7.53,2.488-.2Zm4.3-9.191a3.294,3.294,0,0,1,1.345,1.018c.233.27.6.679.773.679s.368-.238.773-.679a3.047,3.047,0,0,1,1.345-1.018,3.672,3.672,0,0,1,1.715.2,2.778,2.778,0,0,0,.94.17c.134-.068.2-.374.336-.949a3.255,3.255,0,0,1,.672-1.595,3.659,3.659,0,0,1,1.58-.678,3.3,3.3,0,0,0,.94-.339c.1-.1,0-.405-.168-.95a3.426,3.426,0,0,1-.2-1.73,3.337,3.337,0,0,1,1.007-1.362c.268-.235.672-.609.672-.78s-.235-.372-.672-.78a3.059,3.059,0,0,1-1.008-1.356,3.816,3.816,0,0,1,.2-1.73c.067-.3.269-.848.168-.984s-.37-.2-.941-.339a3.181,3.181,0,0,1-1.579-.678,3.7,3.7,0,0,1-.672-1.594,3.349,3.349,0,0,0-.337-.949c-.1-.1-.4,0-.94.169a2.283,2.283,0,0,1-3.058-.813c-.234-.271-.606-.68-.773-.68s-.369.239-.774.68a3.034,3.034,0,0,1-1.344,1.017,3.65,3.65,0,0,1-1.715-.2,2.757,2.757,0,0,0-.94-.169c-.135.068-.2.373-.337.949a3.231,3.231,0,0,1-.672,1.594,3.638,3.638,0,0,1-1.579.678,3.26,3.26,0,0,0-.941.339c-.1.1,0,.4.168.949a3.416,3.416,0,0,1,.2,1.73,3.318,3.318,0,0,1-1.008,1.359c-.268.236-.672.61-.672.78s.235.372.672.78a3.062,3.062,0,0,1,1.008,1.357,3.812,3.812,0,0,1-.2,1.729,3.163,3.163,0,0,0-.168.984c.1.137.337.2.909.342a3.182,3.182,0,0,1,1.579.679,3.7,3.7,0,0,1,.672,1.594,2.558,2.558,0,0,0,.337.949c.134.1.671-.068.974-.17a4.377,4.377,0,0,1,1.278-.272Zm-2.219-7.9,1.008-.882,1.748,2.1,5.144-3.8.773,1.085-6.117,4.546Z" fill="#fff"/></g></svg>