<svg xmlns="http://www.w3.org/2000/svg" width="51" height="51" viewBox="0 0 51 51"><g transform="translate(-246 -3331)"><circle cx="25.5" cy="25.5" r="25.5" transform="translate(246 3331)" fill="#a90044"/><path d="M267.434,3372.873a.822.822,0,0,1-.259-1.131,7.588,7.588,0,0,1,2.154-2.242l.215-.148a6,6,0,0,0,2.608-5.144,7.636,7.636,0,0,1,1.152-4.27l1.984-3.215a1.44,1.44,0,1,0-2.438-1.534l-2.655,4.19a8.543,8.543,0,0,1-2.408,2.517.821.821,0,0,1-.932-1.353,6.926,6.926,0,0,0,1.908-1.958,3.2,3.2,0,0,0-1.177-.574.818.818,0,0,1,.436-1.577,5.289,5.289,0,0,1,.591.2v-5.443a16.179,16.179,0,0,0-2.68.915,26.7,26.7,0,0,0-2.535,1.25,5.106,5.106,0,0,0-2.523,3.575l-2.247,12.972c-.067.38-.808.677-.938.675h-.005a.816.816,0,0,1-.665-.942l2.247-12.959a6.73,6.73,0,0,1,3.318-4.729,28.247,28.247,0,0,1,2.7-1.358,17.143,17.143,0,0,1,3.332-1.094v-6.363a2.124,2.124,0,0,1,2.124-2.124h13.139A2.124,2.124,0,0,1,286,3343.13v17.831a2.125,2.125,0,0,1-2.124,2.125h-3.3l.039.115a2.5,2.5,0,0,1-2.907,3.263,2.578,2.578,0,0,1-4.3,1.051l-.2-.2a7.639,7.639,0,0,1-2.731,3.387l-.216.147a6.008,6.008,0,0,0-1.693,1.766.82.82,0,0,1-1.13.26Zm6.351-8.715a7.73,7.73,0,0,1-.081,1.329l.865.881a.954.954,0,0,0,1.49-1.17l-1.272-2.07a.064.064,0,0,1-.023-.047h-.91A5.99,5.99,0,0,0,273.785,3364.158Zm3.661.186c.028.046.049.09.076.138a.865.865,0,0,0,1.122.327v-.007a.868.868,0,0,0,.43-1.064l-.231-.654h-2.17Zm-2.793-11.4a3.072,3.072,0,0,1,2.036,4.644l-2,3.208a6.2,6.2,0,0,0-.349.652h9.529a.493.493,0,0,0,.493-.492v-17.825a.493.493,0,0,0-.493-.492h-9.216Zm-4.408-9.814.009,13.146,1.247-1.958a3.065,3.065,0,0,1,1.517-1.235v-10.445h-2.283A.492.492,0,0,0,270.246,3343.13Zm10.718,15.534v-2.154a.816.816,0,1,1,1.632,0v2.154a.816.816,0,1,1-1.632,0Zm0-5.541v-2.157a.816.816,0,1,1,1.632,0v2.156a.816.816,0,0,1-1.632,0Zm0-5.543v-2.157a.816.816,0,1,1,1.632,0v2.155a.816.816,0,0,1-1.632,0Z" fill="#fff"/></g></svg>