<svg xmlns="http://www.w3.org/2000/svg" width="51" height="51" viewBox="0 0 51 51"><g transform="translate(-635 -2974)"><circle cx="25.5" cy="25.5" r="25.5" transform="translate(635 2974)" fill="#a90044"/><path d="M671.853,3013.834l-3.922-4.109H656.9a1.384,1.384,0,0,1-1.331-1.11h-.1v-5.971c0-.031,0-.18,0-.412h-2.389l-3.921,4.114a.431.431,0,0,1-.311.135.45.45,0,0,1-.439-.461v-3.791h-1.031a1.4,1.4,0,0,1-1.367-1.433v-11.365a1.4,1.4,0,0,1,1.367-1.433h16.734a1.4,1.4,0,0,1,1.366,1.433v6.065h8.162a1.4,1.4,0,0,1,1.366,1.428v11.367a1.4,1.4,0,0,1-1.366,1.433H672.6v3.784a.474.474,0,0,1-.129.327.425.425,0,0,1-.621,0Zm-15.44-16.909v11.362a.5.5,0,0,0,.488.512h11.212a.43.43,0,0,1,.31.137l3.3,3.462v-3.135a.451.451,0,0,1,.439-.461h1.471a.5.5,0,0,0,.488-.512v-11.365a.5.5,0,0,0-.488-.507H656.9A.5.5,0,0,0,656.413,2996.925Zm-9.529-7.493V3000.8a.5.5,0,0,0,.489.512h1.471a.45.45,0,0,1,.439.461v3.139l3.3-3.461a.423.423,0,0,1,.31-.138h2.565c-.007-1.428-.012-3.584.008-4.336a1.6,1.6,0,0,1,.2-.762,1.138,1.138,0,1,1,1.222-1.132,1.184,1.184,0,0,1-.068.4,2.086,2.086,0,0,1,.4-.028h2.766a1.187,1.187,0,0,1-.058-.368,1.091,1.091,0,1,1,2.18,0,1.187,1.187,0,0,1-.058.367h2.542v-6.015a.5.5,0,0,0-.488-.511H647.373A.5.5,0,0,0,646.884,2989.432Zm22.626,12.948a1.091,1.091,0,1,1,1.09,1.139A1.116,1.116,0,0,1,669.51,3002.38Zm-5.22,0a1.091,1.091,0,1,1,1.09,1.139A1.116,1.116,0,0,1,664.29,3002.38Zm-5.23,0a1.091,1.091,0,1,1,1.09,1.139A1.116,1.116,0,0,1,659.06,3002.38Zm-9.57-7.3a1.091,1.091,0,1,1,1.09,1.14A1.115,1.115,0,0,1,649.49,2995.08Z" fill="#fff"/><path d="M671.853,3013.834l-3.922-4.109H656.9a1.384,1.384,0,0,1-1.331-1.11h-.1v-5.971c0-.031,0-.18,0-.412h-2.389l-3.921,4.114a.431.431,0,0,1-.311.135.45.45,0,0,1-.439-.461v-3.791h-1.031a1.4,1.4,0,0,1-1.367-1.433v-11.365a1.4,1.4,0,0,1,1.367-1.433h16.734a1.4,1.4,0,0,1,1.366,1.433v6.065h8.162a1.4,1.4,0,0,1,1.366,1.428v11.367a1.4,1.4,0,0,1-1.366,1.433H672.6v3.784a.474.474,0,0,1-.129.327.425.425,0,0,1-.621,0Zm-15.44-16.909v11.362a.5.5,0,0,0,.488.512h11.212a.43.43,0,0,1,.31.137l3.3,3.462v-3.135a.451.451,0,0,1,.439-.461h1.471a.5.5,0,0,0,.488-.512v-11.365a.5.5,0,0,0-.488-.507H656.9A.5.5,0,0,0,656.413,2996.925Zm-9.529-7.493V3000.8a.5.5,0,0,0,.489.512h1.471a.45.45,0,0,1,.439.461v3.139l3.3-3.461a.423.423,0,0,1,.31-.138h2.565c-.007-1.428-.012-3.584.008-4.336a1.6,1.6,0,0,1,.2-.762,1.138,1.138,0,1,1,1.222-1.132,1.184,1.184,0,0,1-.068.4,2.086,2.086,0,0,1,.4-.028h2.766a1.187,1.187,0,0,1-.058-.368,1.091,1.091,0,1,1,2.18,0,1.187,1.187,0,0,1-.058.367h2.542v-6.015a.5.5,0,0,0-.488-.511H647.373A.5.5,0,0,0,646.884,2989.432Zm22.626,12.948a1.091,1.091,0,1,1,1.09,1.139A1.116,1.116,0,0,1,669.51,3002.38Zm-5.22,0a1.091,1.091,0,1,1,1.09,1.139A1.116,1.116,0,0,1,664.29,3002.38Zm-5.23,0a1.091,1.091,0,1,1,1.09,1.139A1.116,1.116,0,0,1,659.06,3002.38Zm-9.57-7.3a1.091,1.091,0,1,1,1.09,1.14A1.115,1.115,0,0,1,649.49,2995.08Z" fill="#fff"/><path d="M671.853,3013.834l-3.922-4.109H656.9a1.384,1.384,0,0,1-1.331-1.11h-.1v-5.971c0-.031,0-.18,0-.412h-2.389l-3.921,4.114a.431.431,0,0,1-.311.135.45.45,0,0,1-.439-.461v-3.791h-1.031a1.4,1.4,0,0,1-1.367-1.433v-11.365a1.4,1.4,0,0,1,1.367-1.433h16.734a1.4,1.4,0,0,1,1.366,1.433v6.065h8.162a1.4,1.4,0,0,1,1.366,1.428v11.367a1.4,1.4,0,0,1-1.366,1.433H672.6v3.784a.474.474,0,0,1-.129.327.425.425,0,0,1-.621,0Zm-15.44-16.909v11.362a.5.5,0,0,0,.488.512h11.212a.43.43,0,0,1,.31.137l3.3,3.462v-3.135a.451.451,0,0,1,.439-.461h1.471a.5.5,0,0,0,.488-.512v-11.365a.5.5,0,0,0-.488-.507H656.9A.5.5,0,0,0,656.413,2996.925Zm-9.529-7.493V3000.8a.5.5,0,0,0,.489.512h1.471a.45.45,0,0,1,.439.461v3.139l3.3-3.461a.423.423,0,0,1,.31-.138h2.565c-.007-1.428-.012-3.584.008-4.336a1.6,1.6,0,0,1,.2-.762,1.138,1.138,0,1,1,1.222-1.132,1.184,1.184,0,0,1-.068.4,2.086,2.086,0,0,1,.4-.028h2.766a1.187,1.187,0,0,1-.058-.368,1.091,1.091,0,1,1,2.18,0,1.187,1.187,0,0,1-.058.367h2.542v-6.015a.5.5,0,0,0-.488-.511H647.373A.5.5,0,0,0,646.884,2989.432Zm22.626,12.948a1.091,1.091,0,1,1,1.09,1.139A1.116,1.116,0,0,1,669.51,3002.38Zm-5.22,0a1.091,1.091,0,1,1,1.09,1.139A1.116,1.116,0,0,1,664.29,3002.38Zm-5.23,0a1.091,1.091,0,1,1,1.09,1.139A1.116,1.116,0,0,1,659.06,3002.38Zm-9.57-7.3a1.091,1.091,0,1,1,1.09,1.14A1.115,1.115,0,0,1,649.49,2995.08Z" fill="#fff"/></g></svg>