<svg xmlns="http://www.w3.org/2000/svg" width="19" height="22" viewBox="0 0 19 22"><path d="M1273.792,49a.789.789,0,0,1-.792-.786V44.547a5,5,0,0,1,5.014-4.976h8.973A5,5,0,0,1,1292,44.547v3.667a.789.789,0,0,1-.791.786Zm.792-4.452v2.881h15.833V44.547a3.421,3.421,0,0,0-3.43-3.4h-8.973A3.421,3.421,0,0,0,1274.584,44.547Zm2.639-12.31a5.278,5.278,0,1,1,5.278,5.239A5.263,5.263,0,0,1,1277.222,32.237Zm1.583,0a3.695,3.695,0,1,0,3.694-3.667A3.685,3.685,0,0,0,1278.806,32.237Z" transform="translate(-1273 -27)"/></svg>